HIERARCHY
ROOT Pelvis
{
	OFFSET 0.000000 0.000000 0.743317
	CHANNELS 6 Xposition Yposition Zposition Xrotation Yrotation Zrotation
	JOINT Spine
	{
		OFFSET 0.000000 0.001352 0.099858
		CHANNELS 6 Xposition Yposition Zposition Xrotation Yrotation Zrotation
		JOINT Spine1
		{
			OFFSET 0.000000 0.005761 0.127053
			CHANNELS 6 Xposition Yposition Zposition Xrotation Yrotation Zrotation
			JOINT Spine2
			{
				OFFSET 0.000000 0.009235 0.126854
				CHANNELS 3 Xrotation Yrotation Zrotation
				JOINT Neck
				{
					OFFSET 0.000000 -0.006235 0.165749
					CHANNELS 6 Xposition Yposition Zposition Xrotation Yrotation Zrotation
					JOINT Head
					{
						OFFSET 0.000000 -0.016874 0.054983
						CHANNELS 3 Xrotation Yrotation Zrotation
						JOINT MJaw
						{
							OFFSET 0.000000 -0.014308 0.025444
							CHANNELS 6 Xposition Yposition Zposition Xrotation Yrotation Zrotation
							End Site
							{
								OFFSET 0.000253 -0.081293 -0.007859
							}
						}
						JOINT LEye
						{
							OFFSET 0.026476 -0.071302 0.082186
							CHANNELS 3 Xrotation Yrotation Zrotation
							End Site
							{
								OFFSET -0.000002 0.000001 -0.110634
							}
						}
						JOINT REye
						{
							OFFSET -0.026476 -0.071302 0.082186
							CHANNELS 3 Xrotation Yrotation Zrotation
							End Site
							{
								OFFSET 0.000002 0.000001 -0.110633
							}
						}
						End Site
						{
							OFFSET 0.000000 -0.004522 0.086285
						}
					}
				}
				JOINT R Clavicle
				{
					OFFSET -0.060467 0.003259 0.114754
					CHANNELS 6 Xposition Yposition Zposition Xrotation Yrotation Zrotation
					JOINT R UpperArm
					{
						OFFSET -0.114214 0.001474 -0.026001
						CHANNELS 6 Xposition Yposition Zposition Xrotation Yrotation Zrotation
						JOINT R Forearm
						{
							OFFSET -0.170868 -0.005129 -0.164611
							CHANNELS 6 Xposition Yposition Zposition Xrotation Yrotation Zrotation
							JOINT R Hand
							{
								OFFSET -0.142402 -0.083119 -0.153032
								CHANNELS 6 Xposition Yposition Zposition Xrotation Yrotation Zrotation
								JOINT R Finger1
								{
									OFFSET -0.041891 -0.043380 -0.053439
									CHANNELS 3 Xrotation Yrotation Zrotation
									JOINT R Finger11
									{
										OFFSET -0.010989 -0.007736 -0.022236
										CHANNELS 3 Xrotation Yrotation Zrotation
										JOINT R Finger12
										{
											OFFSET -0.005103 -0.004998 -0.018418
											CHANNELS 3 Xrotation Yrotation Zrotation
											End Site
											{
												OFFSET -0.004341 -0.004773 -0.018671
											}
										}
									}
								}
								JOINT R Finger2
								{
									OFFSET -0.048821 -0.025187 -0.057328
									CHANNELS 3 Xrotation Yrotation Zrotation
									JOINT R Finger21
									{
										OFFSET -0.011398 -0.008125 -0.028292
										CHANNELS 3 Xrotation Yrotation Zrotation
										JOINT R Finger22
										{
											OFFSET -0.005540 -0.006152 -0.022159
											CHANNELS 3 Xrotation Yrotation Zrotation
											End Site
											{
												OFFSET -0.001314 -0.006063 -0.022827
											}
										}
									}
								}
								JOINT R Finger3
								{
									OFFSET -0.049318 -0.006435 -0.058925
									CHANNELS 3 Xrotation Yrotation Zrotation
									JOINT R Finger31
									{
										OFFSET -0.007909 -0.007533 -0.025759
										CHANNELS 3 Xrotation Yrotation Zrotation
										JOINT R Finger32
										{
											OFFSET -0.003783 -0.005495 -0.019168
											CHANNELS 3 Xrotation Yrotation Zrotation
											End Site
											{
												OFFSET -0.002779 -0.005491 -0.019340
											}
										}
									}
								}
								JOINT R Finger4
								{
									OFFSET -0.043087 0.010357 -0.060532
									CHANNELS 3 Xrotation Yrotation Zrotation
									JOINT R Finger41
									{
										OFFSET -0.002748 -0.005802 -0.023285
										CHANNELS 3 Xrotation Yrotation Zrotation
										JOINT R Finger42
										{
											OFFSET -0.000910 -0.003140 -0.012326
											CHANNELS 3 Xrotation Yrotation Zrotation
											End Site
											{
												OFFSET -0.000279 -0.003221 -0.012336
											}
										}
									}
								}
								JOINT R Finger0
								{
									OFFSET -0.000780 -0.031320 -0.015642
									CHANNELS 3 Xrotation Yrotation Zrotation
									JOINT R Finger01
									{
										OFFSET 0.001349 -0.015704 -0.017404
										CHANNELS 3 Xrotation Yrotation Zrotation
										JOINT R Finger02
										{
											OFFSET -0.001327 -0.013136 -0.022101
											CHANNELS 3 Xrotation Yrotation Zrotation
											End Site
											{
												OFFSET -0.003927 -0.008645 -0.023930
											}
										}
									}
								}
							}
						}
					}
				}
				JOINT L Clavicle
				{
					OFFSET 0.060467 0.003259 0.114754
					CHANNELS 6 Xposition Yposition Zposition Xrotation Yrotation Zrotation
					JOINT L UpperArm
					{
						OFFSET 0.114214 0.001474 -0.026001
						CHANNELS 6 Xposition Yposition Zposition Xrotation Yrotation Zrotation
						JOINT L Forearm
						{
							OFFSET 0.170868 -0.005128 -0.164611
							CHANNELS 6 Xposition Yposition Zposition Xrotation Yrotation Zrotation
							JOINT L Hand
							{
								OFFSET 0.142402 -0.083118 -0.153033
								CHANNELS 6 Xposition Yposition Zposition Xrotation Yrotation Zrotation
								JOINT L Finger1
								{
									OFFSET 0.041891 -0.043380 -0.053438
									CHANNELS 3 Xrotation Yrotation Zrotation
									JOINT L Finger11
									{
										OFFSET 0.010988 -0.007736 -0.022236
										CHANNELS 3 Xrotation Yrotation Zrotation
										JOINT L Finger12
										{
											OFFSET 0.005103 -0.004998 -0.018418
											CHANNELS 3 Xrotation Yrotation Zrotation
											End Site
											{
												OFFSET 0.004341 -0.004773 -0.018671
											}
										}
									}
								}
								JOINT L Finger2
								{
									OFFSET 0.048821 -0.025187 -0.057327
									CHANNELS 3 Xrotation Yrotation Zrotation
									JOINT L Finger21
									{
										OFFSET 0.011399 -0.008124 -0.028292
										CHANNELS 3 Xrotation Yrotation Zrotation
										JOINT L Finger22
										{
											OFFSET 0.005541 -0.006152 -0.022159
											CHANNELS 3 Xrotation Yrotation Zrotation
											End Site
											{
												OFFSET 0.001314 -0.006063 -0.022827
											}
										}
									}
								}
								JOINT L Finger3
								{
									OFFSET 0.049319 -0.006435 -0.058924
									CHANNELS 3 Xrotation Yrotation Zrotation
									JOINT L Finger31
									{
										OFFSET 0.007909 -0.007533 -0.025759
										CHANNELS 3 Xrotation Yrotation Zrotation
										JOINT L Finger32
										{
											OFFSET 0.003782 -0.005495 -0.019167
											CHANNELS 3 Xrotation Yrotation Zrotation
											End Site
											{
												OFFSET 0.002779 -0.005491 -0.019340
											}
										}
									}
								}
								JOINT L Finger4
								{
									OFFSET 0.043087 0.010356 -0.060532
									CHANNELS 3 Xrotation Yrotation Zrotation
									JOINT L Finger41
									{
										OFFSET 0.002747 -0.005802 -0.023285
										CHANNELS 3 Xrotation Yrotation Zrotation
										JOINT L Finger42
										{
											OFFSET 0.000910 -0.003139 -0.012326
											CHANNELS 3 Xrotation Yrotation Zrotation
											End Site
											{
												OFFSET 0.000279 -0.003221 -0.012336
											}
										}
									}
								}
								JOINT L Finger0
								{
									OFFSET 0.000780 -0.031320 -0.015642
									CHANNELS 3 Xrotation Yrotation Zrotation
									JOINT L Finger01
									{
										OFFSET -0.001348 -0.015704 -0.017404
										CHANNELS 3 Xrotation Yrotation Zrotation
										JOINT L Finger02
										{
											OFFSET 0.001327 -0.013135 -0.022101
											CHANNELS 3 Xrotation Yrotation Zrotation
											End Site
											{
												OFFSET 0.003927 -0.008645 -0.023929
											}
										}
									}
								}
							}
						}
					}
				}
			}
		}
	}
	JOINT R Thigh
	{
		OFFSET -0.073377 0.000000 0.000000
		CHANNELS 6 Xposition Yposition Zposition Xrotation Yrotation Zrotation
		JOINT R Calf
		{
			OFFSET -0.017406 -0.013523 -0.330605
			CHANNELS 6 Xposition Yposition Zposition Xrotation Yrotation Zrotation
			JOINT R Foot
			{
				OFFSET -0.006092 0.025610 -0.328337
				CHANNELS 3 Xrotation Yrotation Zrotation
				JOINT R Toe0
				{
					OFFSET -0.028338 -0.111085 -0.082375
					CHANNELS 6 Xposition Yposition Zposition Xrotation Yrotation Zrotation
					End Site
					{
						OFFSET 0.000495 0.002442 0.141147
					}
				}
			}
		}
	}
	JOINT L Thigh
	{
		OFFSET 0.073377 0.000000 0.000000
		CHANNELS 6 Xposition Yposition Zposition Xrotation Yrotation Zrotation
		JOINT L Calf
		{
			OFFSET 0.017901 -0.013562 -0.330577
			CHANNELS 6 Xposition Yposition Zposition Xrotation Yrotation Zrotation
			JOINT L Foot
			{
				OFFSET 0.006585 0.025573 -0.328331
				CHANNELS 3 Xrotation Yrotation Zrotation
				JOINT L Toe0
				{
					OFFSET 0.028459 -0.111097 -0.082320
					CHANNELS 6 Xposition Yposition Zposition Xrotation Yrotation Zrotation
					End Site
					{
						OFFSET -0.000706 0.002458 0.141146
					}
				}
			}
		}
	}
}
MOTION
Frames: 7
Frame Time:	0.016667
-0.6525 0.0001 1.5412 0 0 0 0 0.0014 0.0999 0 0 0 0 0.0058 0.1271 0 0 0 0 0 0 0 -0.0062 0.1657 0 0 0 0 0 0 0 -0.0143 0.0254 0 0 0 0 0 0 0 0 0 -0.0605 0.0033 0.1148 0 0 0 -0.1142 0.0015 -0.026 0 0 0 -0.1709 -0.0051 -0.1646 0 0 0 -0.1424 -0.0831 -0.153 0 0 0 0 0 0 0 0 0 0 0 0 0 0 0 0 0 0 0 0 0 0 0 0 0 0 0 0 0 0 0 0 0 0 0 0 0 0 0 0 0 0 0 0 0 0 0 0 0.0605 0.0033 0.1148 0 0 0 0.1142 0.0015 -0.026 0 0 0 0.1709 -0.0051 -0.1646 0 0 0 0.1424 -0.0831 -0.153 0 0 0 0 0 0 0 0 0 0 0 0 0 0 0 0 0 0 0 0 0 0 0 0 0 0 0 0 0 0 0 0 0 0 0 0 0 0 0 0 0 0 0 0 0 0 0 0 -0.0734 0 0 0 0 0 -0.0174 -0.0135 -0.3306 0 0 0 0 0 0 -0.0283 -0.1111 -0.0824 0 0 0 0.0734 0 0 0 0 0 0.0179 -0.0136 -0.3306 0 0 0 0 0 0 0.0285 -0.1111 -0.0823 0 0 0 
0.0178 -0.0982 0.803 -0.1304 -0.6179 -106.1037 0 0.0013 0.0999 0.5268 0.0552 0.2001 0 0.0057 0.1273 3.3364 0.2454 0.2139 0 0 0 0 -0.0062 0.1657 -5.1916 0.4448 2.5195 0.1303 -0.2436 2.2685 0 -0.0143 0.0255 -0.0326 0 -0.0004 3.1164 -0.0481 -1.7519 3.1662 -0.0463 -1.6597 -0.0605 0.0033 0.1181 -0.1072 -5.9287 -0.0808 -0.1142 0.0015 -0.026 11.4647 -23.0244 3.6528 -0.1709 -0.0051 -0.1646 -9.2069 -4.7849 31.1372 -0.1424 -0.0831 -0.153 24.5212 25.042 -10.9906 22.3262 -47.1694 29.4667 31.0922 -54.9759 30.426 20.7467 -46.425 19.5432 8.893 -33.982 13.8636 9.3297 -28.0353 8.0971 7.0781 -20.6982 5.5998 4.4265 -15.5593 1.7594 10.6347 -30.8321 9.631 8.2684 -26.0995 7.435 2.7256 -1.4163 -3.7622 8.4572 -26.384 7.4674 3.9222 -14.0325 2.8792 -15.9376 10.0554 -17.7718 -2.6124 -1.9787 -3.8263 -10.4811 -5.851 -1.2927 0.0605 0.0033 0.118 -0.1108 5.9307 0.072 0.1142 0.0015 -0.026 12.1228 24.9596 -2.8298 0.1709 -0.0051 -0.1646 -11.5711 7.1308 -27.1007 0.1424 -0.0831 -0.153 21.27 -25.0542 18.5622 21.4924 46.3818 -28.5261 29.6292 54.0438 -28.9899 20.9178 46.5805 -19.718 8.4625 33.6043 -13.6215 7.8778 24.5656 -6.6909 7.3126 21.292 -5.8556 4.953 16.5908 -2.0561 9.3307 28.1091 -8.3368 7.9767 25.3915 -7.1638 3.1269 1.6981 3.7096 7.4508 23.9764 -6.4876 4.7173 16.5119 -3.7253 -31.1937 -7.6973 14.1933 9.9158 -4.0608 9.1944 55.1026 -14.1098 33.6841 -0.0734 0 0.0001 0.775 -0.4846 6.8407 -0.0174 -0.0135 -0.3306 -6.8004 1.9269 0.3928 57.7562 -10.0867 5.603 -0.0283 -0.1111 -0.0824 -52.1301 9.2658 6.6897 0.0734 0 0.0001 2.2171 3.7408 4.0522 0.0179 -0.0136 -0.3306 -6.8003 -1.9262 -0.4028 50.2835 10.674 -2.6153 0.0285 -0.1111 -0.0823 -46.9927 -10.7752 -4.528 
0.0178 -0.0982 0.803 -0.1305 -0.6179 -106.1037 0 0.0013 0.0999 0.5268 0.0552 0.2001 0 0.0057 0.1273 3.3364 0.2454 0.214 0 0 0 0 -0.0062 0.1657 -5.1916 0.4448 2.5195 0.1303 -0.2436 2.2685 0 -0.0143 0.0255 -0.0326 0 -0.0004 3.1164 -0.0481 -1.7519 3.1662 -0.0463 -1.6597 -0.0605 0.0033 0.1181 -0.1072 -5.9287 -0.0808 -0.1142 0.0015 -0.026 11.4647 -23.0244 3.6528 -0.1709 -0.0051 -0.1646 -9.2069 -4.7849 31.1373 -0.1424 -0.0831 -0.153 24.5212 25.042 -10.9906 22.3262 -47.1694 29.4667 31.0922 -54.9759 30.4259 20.7467 -46.425 19.5432 8.893 -33.982 13.8636 9.3297 -28.0353 8.0971 7.0782 -20.6981 5.5998 4.4265 -15.5593 1.7594 10.6347 -30.8321 9.631 8.2684 -26.0995 7.435 2.7256 -1.4163 -3.7622 8.4572 -26.384 7.4674 3.9222 -14.0325 2.8792 -15.9376 10.0554 -17.7718 -2.6124 -1.9787 -3.8263 -10.4811 -5.851 -1.2927 0.0605 0.0033 0.118 -0.1108 5.9307 0.072 0.1142 0.0015 -0.026 12.1228 24.9596 -2.8297 0.1709 -0.0051 -0.1646 -11.5711 7.1308 -27.1007 0.1424 -0.0831 -0.153 21.27 -25.0542 18.5622 21.4924 46.3817 -28.5261 29.6292 54.0439 -28.9899 20.9178 46.5804 -19.718 8.4625 33.6043 -13.6216 7.8778 24.5656 -6.6909 7.3126 21.292 -5.8556 4.953 16.5908 -2.0561 9.3307 28.1091 -8.3368 7.9767 25.3915 -7.1638 3.1269 1.6981 3.7096 7.4508 23.9764 -6.4876 4.7173 16.5119 -3.7253 -31.1937 -7.6973 14.1932 9.9158 -4.0608 9.1944 55.1026 -14.1099 33.6841 -0.0734 0 0.0001 0.775 -0.4846 6.8407 -0.0174 -0.0135 -0.3306 -6.8004 1.9269 0.3928 57.7562 -10.0867 5.603 -0.0283 -0.1111 -0.0824 -52.1301 9.2658 6.6897 0.0734 0 0.0001 2.2171 3.7409 4.0522 0.0179 -0.0136 -0.3306 -6.8003 -1.9262 -0.4028 50.2835 10.674 -2.6153 0.0285 -0.1111 -0.0823 -46.9927 -10.7752 -4.528 
0.0159 -0.0993 0.803 -0.1263 -0.6368 -106.1084 0 0.0013 0.0999 0.5797 0.0696 0.1878 0 0.0057 0.1273 3.4381 0.2895 0.1978 0 0 0 0 -0.0062 0.1657 -4.6883 0.5791 2.5539 0.3751 -0.2411 2.2621 0 -0.0143 0.0255 -0.0326 0 -0.0004 3.0919 -0.0486 -1.7942 3.144 -0.0468 -1.701 -0.0605 0.0033 0.1181 -0.0977 -5.9285 -0.103 -0.1142 0.0015 -0.026 11.5724 -22.8536 3.3413 -0.1709 -0.0051 -0.1646 -9.2026 -4.8766 31.3386 -0.1424 -0.0831 -0.153 24.3531 25.0389 -10.8037 22.3328 -47.1732 29.4723 31.1072 -54.9848 30.4407 20.7504 -46.429 19.5469 8.8914 -33.9907 13.867 9.3391 -28.0563 8.1063 7.0908 -20.7321 5.6126 4.4061 -15.5747 1.7633 10.6466 -30.8555 9.643 8.2789 -26.1237 7.4456 2.6925 -1.4299 -3.7582 8.4648 -26.4015 7.4751 3.9352 -14.0743 2.8924 -15.9376 10.0554 -17.7718 -2.6124 -1.9787 -3.8263 -10.4811 -5.851 -1.2927 0.0605 0.0033 0.118 -0.1116 5.9315 0.07 0.1142 0.0015 -0.026 12.3167 25.1527 -2.6137 0.1709 -0.0051 -0.1646 -11.5227 7.2866 -27.3818 0.1424 -0.0831 -0.153 21.2594 -25.2961 18.467 21.5221 46.4069 -28.557 29.6825 54.078 -29.0423 20.9175 46.5802 -19.7178 8.4737 33.6235 -13.632 7.9238 24.6801 -6.736 7.32 21.3113 -5.8629 4.9189 16.5804 -2.0526 9.3758 28.2061 -8.3823 7.9954 25.4354 -7.1827 3.0837 1.7053 3.7063 7.4842 24.0585 -6.5212 4.7099 16.4893 -3.7178 -31.1937 -7.6973 14.1933 9.9158 -4.0608 9.1943 55.1026 -14.1098 33.6841 -0.0734 0 0.0001 0.8666 -0.3824 6.8355 -0.0174 -0.0135 -0.3306 -6.8004 1.9269 0.3928 57.751 -10.1338 5.5681 -0.0283 -0.1111 -0.0824 -52.2445 9.1605 6.7736 0.0734 0 0.0001 2.3481 3.8584 4.0522 0.0179 -0.0136 -0.3306 -6.8003 -1.9262 -0.4028 50.0599 10.5931 -2.5898 0.0285 -0.1111 -0.0823 -46.9327 -10.8239 -4.4829 
0.0149 -0.0998 0.803 -0.1243 -0.6462 -106.1107 0 0.0013 0.0999 0.6061 0.0769 0.1816 0 0.0057 0.1273 3.489 0.3116 0.1897 0 0 0 0 -0.0062 0.1657 -4.4368 0.6464 2.5708 0.4975 -0.2399 2.2592 0 -0.0143 0.0255 -0.0326 0.0001 -0.0004 3.0798 -0.049 -1.8153 3.1329 -0.0473 -1.7217 -0.0605 0.0033 0.1181 -0.0929 -5.9285 -0.1141 -0.1142 0.0015 -0.026 11.6266 -22.7686 3.1854 -0.1709 -0.0051 -0.1646 -9.2005 -4.9221 31.4395 -0.1424 -0.0831 -0.153 24.269 25.0373 -10.7102 22.3328 -47.1732 29.4723 31.1072 -54.9848 30.4407 20.7505 -46.429 19.5469 8.8914 -33.9907 13.8671 9.3391 -28.0563 8.1063 7.0909 -20.7322 5.6126 4.4061 -15.5747 1.7633 10.6466 -30.8555 9.6431 8.2789 -26.1238 7.4456 2.6925 -1.4299 -3.7581 8.4648 -26.4014 7.4751 3.9352 -14.0743 2.8924 -15.9376 10.0554 -17.7718 -2.6124 -1.9787 -3.8263 -10.4811 -5.851 -1.2927 0.0605 0.0033 0.118 -0.112 5.9318 0.069 0.1142 0.0015 -0.026 12.4133 25.2497 -2.5059 0.1709 -0.0051 -0.1646 -11.4974 7.3637 -27.5227 0.1424 -0.0831 -0.153 21.2543 -25.4171 18.4196 21.5221 46.4069 -28.557 29.6825 54.0781 -29.0423 20.9175 46.5801 -19.7178 8.4737 33.6235 -13.6319 7.9238 24.6801 -6.736 7.32 21.3113 -5.863 4.9189 16.5804 -2.0526 9.3758 28.2061 -8.3823 7.9954 25.4354 -7.1827 3.0837 1.7054 3.7064 7.4842 24.0585 -6.5212 4.7099 16.4893 -3.7178 -31.1937 -7.6973 14.1933 9.9158 -4.0608 9.1944 55.1026 -14.1099 33.6841 -0.0734 0 0.0001 0.9124 -0.3313 6.8328 -0.0174 -0.0135 -0.3306 -6.8004 1.9269 0.3928 57.7484 -10.1574 5.5506 -0.0283 -0.1111 -0.0824 -52.3017 9.1078 6.8154 0.0734 0 0.0001 2.4135 3.9171 4.0521 0.0179 -0.0136 -0.3306 -6.8003 -1.9262 -0.4028 49.9481 10.5526 -2.5773 0.0285 -0.1111 -0.0823 -46.9027 -10.8482 -4.4603 
0.014 -0.1004 0.8029 -0.1235 -0.6557 -106.1159 0 0.0014 0.0999 0.6307 0.0812 0.1677 0 0.0058 0.1273 3.5365 0.3284 0.1732 0 0 0 0 -0.0062 0.1657 -4.2089 0.6826 2.5533 0.6148 -0.2628 2.2246 0 -0.0143 0.0255 -0.0326 0 -0.0004 3.0708 -0.0494 -1.8308 3.1249 -0.0476 -1.7364 -0.0605 0.0033 0.1181 -0.0882 -5.9292 -0.125 -0.1142 0.0015 -0.026 11.6866 -22.6955 3.0197 -0.1709 -0.0051 -0.1646 -9.1982 -4.9653 31.5467 -0.1424 -0.0831 -0.153 24.2465 25.0378 -10.7015 22.3328 -47.1732 29.4723 31.1072 -54.9849 30.4407 20.7504 -46.429 19.5468 8.8914 -33.9907 13.867 9.3391 -28.0563 8.1063 7.0909 -20.7322 5.6126 4.4061 -15.5747 1.7633 10.6466 -30.8555 9.643 8.2789 -26.1237 7.4456 2.6925 -1.4299 -3.7582 8.4647 -26.4014 7.4751 3.9352 -14.0743 2.8924 -15.9376 10.0554 -17.7718 -2.6124 -1.9787 -3.8263 -10.4811 -5.851 -1.2927 0.0605 0.0033 0.118 -0.1116 5.9319 0.07 0.1142 0.0015 -0.026 12.5187 25.3146 -2.3801 0.1709 -0.0051 -0.1646 -11.4534 7.4588 -27.6671 0.1424 -0.0831 -0.153 21.2452 -25.5161 18.3601 21.5221 46.4069 -28.557 29.6825 54.078 -29.0423 20.9175 46.5801 -19.7178 8.4737 33.6235 -13.6319 7.9239 24.6801 -6.736 7.32 21.3113 -5.8629 4.9189 16.5804 -2.0526 9.3758 28.2061 -8.3823 7.9954 25.4354 -7.1827 3.0837 1.7053 3.7063 7.4842 24.0585 -6.5212 4.7099 16.4893 -3.7178 -31.1937 -7.6974 14.1932 9.9158 -4.0608 9.1944 55.1026 -14.1099 33.684 -0.0734 0 0.0001 0.9434 -0.2781 6.8328 -0.0174 -0.0135 -0.3306 -6.8004 1.9269 0.3928 57.7995 -10.1869 5.5408 -0.0283 -0.1111 -0.0824 -52.3977 9.0589 6.865 0.0734 0 0.0001 2.4723 3.9769 4.0539 0.0179 -0.0136 -0.3306 -6.8003 -1.9262 -0.4028 49.8458 10.5136 -2.5662 0.0285 -0.1111 -0.0823 -46.876 -10.8745 -4.4375 
0.0136 -0.1007 0.8029 -0.1231 -0.6604 -106.1185 0 0.0014 0.0999 0.6431 0.0834 0.1608 0 0.0058 0.1273 3.5602 0.3368 0.165 0 0 0 0 -0.0062 0.1657 -4.0949 0.7006 2.5445 0.6734 -0.2743 2.2073 0 -0.0143 0.0255 -0.0326 0 -0.0004 3.0663 -0.0496 -1.8386 3.1209 -0.0479 -1.7437 -0.0605 0.0033 0.1181 -0.0859 -5.9296 -0.1305 -0.1142 0.0015 -0.026 11.7167 -22.6591 2.9369 -0.1709 -0.0051 -0.1646 -9.1971 -4.9868 31.6003 -0.1424 -0.0831 -0.153 24.2352 25.0381 -10.6971 22.3328 -47.1732 29.4723 31.1072 -54.9848 30.4407 20.7505 -46.429 19.5469 8.8914 -33.9907 13.867 9.3391 -28.0563 8.1063 7.0909 -20.7322 5.6126 4.4061 -15.5747 1.7633 10.6466 -30.8555 9.643 8.279 -26.1237 7.4456 2.6925 -1.4299 -3.7582 8.4648 -26.4014 7.4751 3.9352 -14.0743 2.8924 -15.9376 10.0554 -17.7718 -2.6124 -1.9787 -3.8263 -10.4811 -5.851 -1.2927 0.0605 0.0033 0.118 -0.1114 5.9319 0.0705 0.1142 0.0015 -0.026 12.5714 25.3472 -2.3173 0.1709 -0.0051 -0.1646 -11.4311 7.5061 -27.7394 0.1424 -0.0831 -0.153 21.2407 -25.5656 18.3304 21.5221 46.4069 -28.557 29.6825 54.078 -29.0423 20.9175 46.5802 -19.7178 8.4737 33.6235 -13.6319 7.9238 24.6801 -6.736 7.32 21.3113 -5.8629 4.9189 16.5804 -2.0526 9.3758 28.2061 -8.3822 7.9954 25.4354 -7.1827 3.0837 1.7054 3.7063 7.4842 24.0585 -6.5212 4.7099 16.4893 -3.7178 -31.1937 -7.6973 14.1933 9.9158 -4.0608 9.1944 55.1026 -14.1099 33.6841 -0.0734 0 0.0001 0.9589 -0.2516 6.8328 -0.0174 -0.0135 -0.3306 -6.8004 1.9269 0.3928 57.825 -10.2016 5.536 -0.0283 -0.1111 -0.0824 -52.4457 9.0345 6.8897 0.0734 0 0.0001 2.5018 4.0068 4.0548 0.0179 -0.0136 -0.3306 -6.8003 -1.9262 -0.4028 49.7946 10.494 -2.5607 0.0285 -0.1111 -0.0823 -46.8626 -10.8876 -4.426 
